<svg width="1440" height="900" viewBox="0 0 1440 900" fill="none" xmlns="http://www.w3.org/2000/svg">
<path d="M0 180C0 142.288 0 123.431 11.7157 111.716C23.4315 100 42.2876 100 80 100H1360C1397.71 100 1416.57 100 1428.28 111.716C1440 123.431 1440 142.288 1440 180V900H0V180Z" fill="url(#paint0_linear_7_171)"/>
<path d="M200.564 925.73C247.018 789.268 407.194 541.249 676.259 640.868C945.324 740.486 1075.21 547.363 1106.51 438.35M299.197 994.292C284.603 939.502 306.261 813.354 509.643 747.078C763.871 664.233 864.504 610.56 830.704 422.687C803.664 272.388 462.136 53.7626 294.752 -36.7624M876.673 1027.09C613.379 791.039 401.408 673.578 444.079 400.73C486.749 127.883 1007.42 312.657 1066.42 209.12" stroke="white" stroke-width="2"/>
<defs>
<linearGradient id="paint0_linear_7_171" x1="1440" y1="900" x2="7.94728e-07" y2="100" gradientUnits="userSpaceOnUse">
<stop stop-color="#EFAFBC"/>
<stop offset="1" stop-color="#C3E3FA"/>
</linearGradient>
</defs>
</svg>
