<svg width="559" height="173" viewBox="0 0 559 173" fill="none" xmlns="http://www.w3.org/2000/svg">
<g filter="url(#filter0_d_4407_60)">
<circle cx="23" cy="20" r="16" fill="#80C7D9"/>
<circle cx="23" cy="20" r="14.5" stroke="white" stroke-width="3"/>
</g>
<g opacity="0.8" filter="url(#filter1_f_4407_60)">
<ellipse cx="338" cy="168.5" rx="26" ry="0.5" fill="black" fill-opacity="0.25"/>
</g>
<circle cx="338" cy="20" r="8" fill="#1C1B20" stroke="white" stroke-width="2"/>
<g opacity="0.8" filter="url(#filter2_f_4407_60)">
<ellipse cx="529" cy="168.5" rx="26" ry="0.5" fill="#EFAFBC"/>
</g>
<circle cx="529" cy="20" r="8" fill="#EFAFBC" stroke="white" stroke-width="2"/>
<circle cx="53.9385" cy="19.9329" r="2.32144" transform="rotate(-18.2968 53.9385 19.9329)" fill="white"/>
<circle cx="63.7265" cy="19.9565" r="2.32144" transform="rotate(-18.2968 63.7265 19.9565)" fill="white"/>
<circle cx="73.5146" cy="19.98" r="2.32144" transform="rotate(-18.2968 73.5146 19.98)" fill="white"/>
<circle cx="83.3026" cy="20.0037" r="2.32144" transform="rotate(-18.2968 83.3026 20.0037)" fill="white"/>
<circle cx="93.0906" cy="20.0272" r="2.32144" transform="rotate(-18.2968 93.0906 20.0272)" fill="white"/>
<circle cx="102.879" cy="20.0508" r="2.32144" transform="rotate(-18.2968 102.879 20.0508)" fill="white"/>
<circle cx="112.667" cy="20.0744" r="2.32144" transform="rotate(-18.2968 112.667 20.0744)" fill="white"/>
<circle cx="122.455" cy="20.098" r="2.32144" transform="rotate(-18.2968 122.455 20.098)" fill="white"/>
<circle cx="132.243" cy="20.1216" r="2.32144" transform="rotate(-18.2968 132.243 20.1216)" fill="white"/>
<circle cx="142.031" cy="20.1452" r="2.32144" transform="rotate(-18.2968 142.031 20.1452)" fill="white"/>
<circle cx="151.819" cy="20.1688" r="2.32144" transform="rotate(-18.2968 151.819 20.1688)" fill="white"/>
<circle cx="161.607" cy="20.1924" r="2.32144" transform="rotate(-18.2968 161.607 20.1924)" fill="white"/>
<circle cx="171.395" cy="20.216" r="2.32144" transform="rotate(-18.2968 171.395 20.216)" fill="white"/>
<circle cx="181.183" cy="20.2396" r="2.32144" transform="rotate(-18.2968 181.183 20.2396)" fill="white"/>
<circle cx="190.971" cy="20.2631" r="2.32144" transform="rotate(-18.2968 190.971 20.2631)" fill="white"/>
<circle cx="200.759" cy="20.2867" r="2.32144" transform="rotate(-18.2968 200.759 20.2867)" fill="white"/>
<circle cx="210.547" cy="20.3103" r="2.32144" transform="rotate(-18.2968 210.547 20.3103)" fill="white"/>
<circle cx="220.335" cy="20.3339" r="2.32144" transform="rotate(-18.2968 220.335 20.3339)" fill="white"/>
<circle cx="230.123" cy="20.3575" r="2.32144" transform="rotate(-18.2968 230.123 20.3575)" fill="white"/>
<circle cx="239.911" cy="20.3811" r="2.32144" transform="rotate(-18.2968 239.911 20.3811)" fill="white"/>
<circle cx="249.699" cy="20.4047" r="2.32144" transform="rotate(-18.2968 249.699 20.4047)" fill="white"/>
<circle cx="259.487" cy="20.4283" r="2.32144" transform="rotate(-18.2968 259.487 20.4283)" fill="white"/>
<circle cx="269.275" cy="20.4519" r="2.32144" transform="rotate(-18.2968 269.275 20.4519)" fill="white"/>
<circle cx="279.063" cy="20.4755" r="2.32144" transform="rotate(-18.2968 279.063 20.4755)" fill="white"/>
<circle cx="288.851" cy="20.4991" r="2.32144" transform="rotate(-18.2968 288.851 20.4991)" fill="white"/>
<circle cx="298.639" cy="20.5227" r="2.32144" transform="rotate(-18.2968 298.639 20.5227)" fill="white"/>
<circle cx="308.427" cy="20.5463" r="2.32144" transform="rotate(-18.2968 308.427 20.5463)" fill="white"/>
<circle cx="318.215" cy="20.5699" r="2.32144" transform="rotate(-18.2968 318.215 20.5699)" fill="white"/>
<circle cx="357.367" cy="20.6642" r="2.32144" transform="rotate(-18.2968 357.367 20.6642)" fill="white"/>
<circle cx="367.155" cy="20.6879" r="2.32144" transform="rotate(-18.2968 367.155 20.6879)" fill="white"/>
<circle cx="376.943" cy="20.7114" r="2.32144" transform="rotate(-18.2968 376.943 20.7114)" fill="white"/>
<circle cx="386.731" cy="20.735" r="2.32144" transform="rotate(-18.2968 386.731 20.735)" fill="white"/>
<circle cx="396.519" cy="20.7586" r="2.32144" transform="rotate(-18.2968 396.519 20.7586)" fill="white"/>
<circle cx="406.307" cy="20.7822" r="2.32144" transform="rotate(-18.2968 406.307 20.7822)" fill="white"/>
<circle cx="416.095" cy="20.8058" r="2.32144" transform="rotate(-18.2968 416.095 20.8058)" fill="white"/>
<circle cx="425.883" cy="20.8294" r="2.32144" transform="rotate(-18.2968 425.883 20.8294)" fill="white"/>
<circle cx="435.671" cy="20.853" r="2.32144" transform="rotate(-18.2968 435.671 20.853)" fill="white"/>
<circle cx="445.459" cy="20.8766" r="2.32144" transform="rotate(-18.2968 445.459 20.8766)" fill="white"/>
<circle cx="455.247" cy="20.9002" r="2.32144" transform="rotate(-18.2968 455.247 20.9002)" fill="white"/>
<circle cx="465.035" cy="20.9238" r="2.32144" transform="rotate(-18.2968 465.035 20.9238)" fill="white"/>
<circle cx="474.823" cy="20.9474" r="2.32144" transform="rotate(-18.2968 474.823 20.9474)" fill="white"/>
<circle cx="484.611" cy="20.9709" r="2.32144" transform="rotate(-18.2968 484.611 20.9709)" fill="white"/>
<circle cx="494.399" cy="20.9945" r="2.32144" transform="rotate(-18.2968 494.399 20.9945)" fill="white"/>
<circle cx="504.187" cy="21.0181" r="2.32144" transform="rotate(-18.2968 504.187 21.0181)" fill="white"/>
<circle cx="513.975" cy="21.0417" r="2.32144" transform="rotate(-18.2968 513.975 21.0417)" fill="white"/>
<defs>
<filter id="filter0_d_4407_60" x="0" y="0" width="46" height="46" filterUnits="userSpaceOnUse" color-interpolation-filters="sRGB">
<feFlood flood-opacity="0" result="BackgroundImageFix"/>
<feColorMatrix in="SourceAlpha" type="matrix" values="0 0 0 0 0 0 0 0 0 0 0 0 0 0 0 0 0 0 127 0" result="hardAlpha"/>
<feOffset dy="3"/>
<feGaussianBlur stdDeviation="3.5"/>
<feComposite in2="hardAlpha" operator="out"/>
<feColorMatrix type="matrix" values="0 0 0 0 0 0 0 0 0 0 0 0 0 0 0 0 0 0 0.18 0"/>
<feBlend mode="normal" in2="BackgroundImageFix" result="effect1_dropShadow_4407_60"/>
<feBlend mode="normal" in="SourceGraphic" in2="effect1_dropShadow_4407_60" result="shape"/>
</filter>
<filter id="filter1_f_4407_60" x="308" y="164" width="60" height="9" filterUnits="userSpaceOnUse" color-interpolation-filters="sRGB">
<feFlood flood-opacity="0" result="BackgroundImageFix"/>
<feBlend mode="normal" in="SourceGraphic" in2="BackgroundImageFix" result="shape"/>
<feGaussianBlur stdDeviation="2" result="effect1_foregroundBlur_4407_60"/>
</filter>
<filter id="filter2_f_4407_60" x="499" y="164" width="60" height="9" filterUnits="userSpaceOnUse" color-interpolation-filters="sRGB">
<feFlood flood-opacity="0" result="BackgroundImageFix"/>
<feBlend mode="normal" in="SourceGraphic" in2="BackgroundImageFix" result="shape"/>
<feGaussianBlur stdDeviation="2" result="effect1_foregroundBlur_4407_60"/>
</filter>
</defs>
</svg>
